# xmcd
#
# Track frame offsets:
#	150
#	14488
#	31018
#	43015
#	60963
#	79013
#
# Disc length: 1260 seconds
#
# Revision: 1
# Processed by: cddbd v1.4PL0 Copyright (c) Steve Scherf et al.
# Submitted via: audiograbber 1.80.04
#
DISCID=3a04ea06
DTITLE=Various Artist - Country Class of 2000
DYEAR=2000
DGENRE=Country
TTITLE0=Hard Rain Don't Last
TTITLE1=Prayin' for Daylight
TTITLE2=Wrong 5 O'clock
TTITLE3=There is No Arizona
TTITLE4=Unconditional
TTITLE5=Something to Write Home About
EXTD=
EXTT0=
EXTT1=
EXTT2=
EXTT3=
EXTT4=
EXTT5=
PLAYORDER=
